<svg width="32" height="32" xmlns="http://www.w3.org/2000/svg">

 <g>
  <title>background</title>
  <rect fill="none" id="canvas_background" height="402" width="582" y="-1" x="-1"/>
 </g>
 <g>
  <title>Layer 1</title>
  <polygon id="svg_2" fill="#4a2359" points="22.586,25.414 29.172,32 32,29.172 25.414,22.586 28,20 20,20 20,28   "/>
  <polygon id="svg_3" fill="#4a2359" points="6.547,9.371 4,12 11.961,11.957 12,4 9.375,6.543 2.828,0 0,2.828   "/>
  <polygon id="svg_4" fill="#4a2359" points="0,29.172 2.828,32 9.414,25.414 12,28 12,20 4,20 6.586,22.586   "/>
  <polygon id="svg_5" fill="#4a2359" points="28.031,12 25.438,9.404 32,2.838 29.164,0 22.598,6.566 20,3.971 20,12   "/>
 </g>
</svg>